Coordinates
version=1
nRows=11
nColumns=63
inDegrees=yes

Units are S.I. units (second, meters, Newtons, ...)
If the header above contains a line with 'inDegrees', this indicates whether rotational values are in degrees (yes) or radians (no).

endheader
time	pelvis_tilt	pelvis_list	pelvis_rotation	pelvis_tx	pelvis_ty	pelvis_tz	hip_flexion_r	hip_adduction_r	hip_rotation_r	knee_angle_r	knee_angle_r_beta	ankle_angle_r	subtalar_angle_r	mtp_angle_r	hip_flexion_l	hip_adduction_l	hip_rotation_l	knee_angle_l	knee_angle_l_beta	ankle_angle_l	subtalar_angle_l	mtp_angle_l	L5_S1_Flex_Ext	L5_S1_Lat_Bending	L5_S1_axial_rotation	L4_L5_Flex_Ext	L4_L5_Lat_Bending	L4_L5_axial_rotation	L3_L4_Flex_Ext	L3_L4_Lat_Bending	L3_L4_axial_rotation	L2_L3_Flex_Ext	L2_L3_Lat_Bending	L2_L3_axial_rotation	L1_L2_Flex_Ext	L1_L2_Lat_Bending	L1_L2_axial_rotation	L1_T12_Flex_Ext	L1_T12_Lat_Bending	L1_T12_axial_rotation	Abs_r3	Abs_r2	Abs_r1	Abs_t1	Abs_t2	neck_flexion	neck_bending	neck_rotation	arm_flex_r	arm_add_r	arm_rot_r	elbow_flex_r	pro_sup_r	wrist_flex_r	wrist_dev_r	arm_flex_l	arm_add_l	arm_rot_l	elbow_flex_l	pro_sup_l	wrist_flex_l	wrist_dev_l
0.000000	2.060708	-4.408681	94.519614	0.140207	0.960151	0.539622	4.517083	1.612577	-10.246102	17.566234	0.306589	26.029660	0.083654	0.000000	2.320372	-2.096151	1.204397	9.650195	0.168428	25.923196	9.483886	0.000000	0.052515	0.244292	-0.495803	0.097525	0.324909	-0.526791	0.086276	0.593973	-0.526791	0.060019	0.593973	-0.433828	0.048765	0.498161	-0.402840	0.030007	0.378409	-0.371852	0.375108	2.763485	-2.757509	0.000000	0.000000	16.562739	-0.536383	0.364258	-3.948888	-9.906618	10.158481	56.016461	85.212652	6.534663	23.450248	12.834368	-6.612630	38.356013	34.390188	85.740190	-13.695193	-12.413536
0.016949	1.786763	-4.583337	93.425448	0.141566	0.959637	0.540793	4.981610	1.400739	-9.709994	17.868115	0.311857	26.557206	0.615491	0.000000	2.456389	-1.769637	0.754645	9.624470	0.167979	26.009253	7.924426	0.000000	0.061706	0.230774	-0.523769	0.114594	0.306929	-0.556505	0.101377	0.561103	-0.556505	0.070524	0.561103	-0.458298	0.057300	0.470594	-0.425563	0.035259	0.357468	-0.392827	0.440759	2.610558	-2.913049	0.000000	0.000000	16.660545	-0.285180	2.121847	-4.053125	-10.430170	11.439583	55.702961	85.774279	7.273152	21.921106	10.747681	-7.647728	34.150918	36.612174	86.482982	-15.747146	-12.148795
0.033898	1.554568	-4.731970	92.440001	0.142958	0.959145	0.541718	5.362825	1.244040	-9.131440	18.106966	0.316026	26.964885	0.976073	0.000000	2.553429	-1.501798	0.340642	9.588892	0.167358	26.072332	6.626009	0.000000	0.069346	0.216810	-0.529198	0.128783	0.288358	-0.562272	0.113929	0.527153	-0.562272	0.079256	0.527153	-0.463048	0.064395	0.442120	-0.429973	0.039625	0.335839	-0.396898	0.495334	2.452603	-2.943238	0.000000	0.000000	16.761912	-0.060671	3.523283	-4.227461	-10.849038	12.395265	55.321591	86.249960	7.857030	20.524104	9.046591	-8.473619	30.516326	38.246101	87.034388	-16.993975	-11.633957
0.050847	1.362417	-4.856217	91.562880	0.144362	0.958676	0.542413	5.665452	1.138685	-8.522863	18.285831	0.319148	27.262393	1.181259	0.000000	2.615253	-1.289624	-0.038616	9.545406	0.166599	26.116739	5.574816	0.000000	0.075589	0.202759	-0.516327	0.140376	0.269669	-0.548598	0.124185	0.492988	-0.548598	0.086390	0.492988	-0.451786	0.070192	0.413466	-0.419516	0.043191	0.314073	-0.387245	0.539923	2.293648	-2.871656	0.000000	0.000000	16.865986	0.139454	4.606487	-4.458725	-11.171799	13.062598	54.874134	86.643291	8.300792	19.256696	7.694155	-9.110543	27.413641	39.351701	87.414935	-17.533291	-10.907947
0.067797	1.208603	-4.957716	90.793690	0.145760	0.958233	0.542890	5.894218	1.080880	-7.896689	18.407753	0.321276	27.459426	1.246905	0.000000	2.645621	-1.130099	-0.384129	9.495953	0.165736	26.146785	4.757027	0.000000	0.080586	0.188975	-0.489398	0.149656	0.251337	-0.519985	0.132395	0.459474	-0.519985	0.092102	0.459474	-0.428223	0.074832	0.385358	-0.397636	0.046047	0.292722	-0.367048	0.575618	2.137724	-2.721885	0.000000	0.000000	16.971909	0.317507	5.409383	-4.733748	-11.407027	13.478654	54.362370	86.957870	8.618937	18.116338	6.653434	-9.578735	24.804265	39.988705	87.645149	-17.462707	-10.009693
0.084746	1.091421	-5.038104	90.132038	0.147130	0.957816	0.543164	6.053846	1.066832	-7.265339	18.475775	0.322463	27.565682	1.188871	0.000000	2.648294	-1.020210	-0.696901	9.442478	0.164802	26.166777	4.158824	0.000000	0.084491	0.175815	-0.452650	0.156908	0.233835	-0.480940	0.138810	0.427478	-0.480940	0.096565	0.427478	-0.396069	0.078458	0.358523	-0.367778	0.048278	0.272338	-0.339487	0.603509	1.988860	-2.517503	0.000000	0.000000	17.078826	0.475797	5.969894	-5.039358	-11.563298	13.680502	53.788080	87.197294	8.825961	17.100487	5.887487	-9.898433	22.649601	40.216846	87.745556	-16.879834	-8.978120
0.101695	1.009165	-5.099017	89.577532	0.148455	0.957426	0.543247	6.149062	1.092746	-6.641239	18.492942	0.322763	27.590858	1.023013	0.000000	2.627031	-0.956946	-0.977933	9.386921	0.163833	26.181024	3.766387	0.000000	0.087456	0.163636	-0.410323	0.162414	0.217636	-0.435968	0.143681	0.397865	-0.435968	0.099953	0.397865	-0.359032	0.081211	0.333687	-0.333387	0.049972	0.253472	-0.307742	0.624688	1.851086	-2.282091	0.000000	0.000000	17.185880	0.616634	6.325942	-5.362386	-11.649187	13.705216	53.153043	87.365160	8.936363	16.206598	5.359373	-10.089874	20.911054	40.095854	87.736684	-15.882283	-7.852153
0.118644	0.960127	-5.142094	89.129778	0.149713	0.957064	0.543154	6.184590	1.154829	-6.036812	18.462297	0.322228	27.544649	0.765190	0.000000	2.585594	-0.937291	-1.228228	9.331227	0.162861	26.193835	3.565898	0.000000	0.089634	0.152794	-0.366656	0.166459	0.203215	-0.389572	0.147259	0.371502	-0.389572	0.102442	0.371502	-0.320824	0.083234	0.311577	-0.297908	0.051217	0.236677	-0.274992	0.640245	1.728431	-2.039231	0.000000	0.000000	17.292215	0.742329	6.515450	-5.689661	-11.673271	13.589865	52.459042	87.465064	8.964638	15.432127	5.032151	-10.173296	19.550025	39.685461	87.639059	-14.567667	-6.670719
0.135593	0.942603	-5.168970	88.788382	0.150886	0.956732	0.542898	6.165157	1.249287	-5.464482	18.386883	0.320912	27.436754	0.431259	0.000000	2.527742	-0.958234	-1.448788	9.277339	0.161920	26.209517	3.543537	0.000000	0.091178	0.143644	-0.325890	0.169326	0.191046	-0.346258	0.149796	0.349255	-0.346258	0.104207	0.349255	-0.285154	0.084667	0.292918	-0.264785	0.052099	0.222504	-0.244417	0.651272	1.624925	-1.812501	0.000000	0.000000	17.396976	0.855193	6.576341	-6.008013	-11.644125	13.371521	51.707856	87.500604	8.925285	14.774530	4.868880	-10.168935	18.527919	39.045399	87.473208	-13.033598	-5.472744
0.152542	0.954886	-5.181283	88.552952	0.151954	0.956431	0.542493	6.095485	1.372327	-4.936672	18.269743	0.318867	27.276868	0.037077	0.000000	2.457236	-1.016761	-1.640615	9.227198	0.161045	26.232380	3.685485	0.000000	0.092240	0.136543	-0.292264	0.171298	0.181602	-0.310530	0.151541	0.331990	-0.310530	0.105421	0.331990	-0.255731	0.085654	0.278438	-0.237464	0.052706	0.211505	-0.219198	0.658859	1.544598	-1.625482	0.000000	0.000000	17.499305	0.957535	6.546538	-6.304271	-11.570323	13.087256	50.901267	87.475378	8.832802	14.231262	4.832619	-10.097029	17.806138	38.235400	87.259657	-11.377687	-4.297152
0.169492	0.995270	-5.180670	88.423094	0.152897	0.956161	0.541953	5.980302	1.520153	-4.465806	18.113922	0.316148	27.074688	-0.401497	0.000000	2.377835	-1.109859	-1.804711	9.182749	0.160269	26.266732	3.977923	0.000000	0.092973	0.131847	-0.270017	0.172660	0.175357	-0.286893	0.152746	0.320573	-0.286893	0.106259	0.320573	-0.236265	0.086335	0.268862	-0.219389	0.053125	0.204231	-0.202513	0.664098	1.491480	-1.501756	0.000000	0.000000	17.598347	1.051666	6.463964	-6.565266	-11.460442	12.774141	50.041055	87.392981	8.701684	13.799780	4.886427	-9.977815	17.346085	37.315194	87.018932	-9.697546	-3.182871
